<svg width="110" height="175" viewBox="0 0 110 175" fill="none" xmlns="http://www.w3.org/2000/svg">
<path fill-rule="evenodd" clip-rule="evenodd" d="M41 7V14H44.5H48V38.5V63H37.5H27V56V49H13.5H0V111.5V174H13.5H27V167V160H30.5C33.833 160 34 160.167 34 163.5V167H55H76V163.5C76 160.154 76.157 160 79.569 160H83.138L82.892 166.75L82.646 173.5L96.323 173.778L110 174.056V111.528V49H96.546H83.091L82.796 55.75L82.5 62.5L72.25 62.785L62 63.07V38.535V14H65.5H69V7V0H55H41V7ZM21.667 81.667C21.3 82.033 21 81.733 21 81C21 80.267 21.3 79.967 21.667 80.333C22.033 80.7 22.033 81.3 21.667 81.667Z" fill="#D9D9D9"/>
</svg>
